<?xml version="1.0" encoding="UTF-8"?>
<svg width="166px" height="60px" viewBox="0 0 166 60" version="1.1" xmlns="http://www.w3.org/2000/svg" xmlns:xlink="http://www.w3.org/1999/xlink">
    <title>Logo</title>
    <g id="Logo" stroke="none" stroke-width="1" fill="none" fill-rule="evenodd">
        <g id="Group" fill-rule="nonzero">
            <g id="Healthy-Wardrobe-Des" transform="translate(1.0061, 47)" fill="#000000">
                <polygon id="Path" points="0 10.4081847 1.19638053 10.4081847 1.19638053 5.9270724 6.46045484 5.9270724 6.46045484 10.4081847 7.65683537 10.4081847 7.65683537 0.56610703 6.46045484 0.56610703 6.46045484 4.82214061 1.19638053 4.82214061 1.19638053 0.56610703 0 0.56610703"></polygon>
                <path d="M12.4272919,10.5377754 C14.1155178,10.5377754 15.1390878,9.55561385 15.3850105,8.55981112 L15.3983036,8.50524659 L14.2418024,8.50524659 L14.2152162,8.56663169 C14.022466,9.00996852 13.4242757,9.48058762 12.4538782,9.48058762 C11.177739,9.48058762 10.3602123,8.59391396 10.3269795,7.0729276 L15.4847088,7.0729276 L15.4847088,6.60912907 C15.4847088,4.41290661 14.3016214,2.92602308 12.3541798,2.92602308 C10.4067382,2.92602308 9.14389205,4.48111228 9.14389205,6.75236097 L9.14389205,6.75918153 C9.14389205,9.06453305 10.3801519,10.5377754 12.4272919,10.5377754 Z M12.3475332,3.98321091 C13.404336,3.98321091 14.1886299,4.67208814 14.308268,6.12486884 L10.3469191,6.12486884 C10.4732038,4.72665268 11.2840839,3.98321091 12.3475332,3.98321091 Z" id="Shape"></path>
                <path d="M18.7929226,10.5377754 C19.7566735,10.5377754 20.5077346,10.1080797 20.9597006,9.32371459 L21.0660456,9.32371459 L21.0660456,10.4081847 L22.2225467,10.4081847 L22.2225467,5.37460651 C22.2225467,3.84679958 21.2455026,2.92602308 19.4974578,2.92602308 C17.9687493,2.92602308 16.8787137,3.70356768 16.6926101,4.85624344 L16.6859635,4.89716684 L17.8424647,4.89716684 L17.8491112,4.87670514 C18.0352149,4.30377754 18.6001724,3.97639035 19.4575784,3.97639035 C20.5276743,3.97639035 21.0660456,4.46747114 21.0660456,5.37460651 L21.0660456,6.04302204 L19.012259,6.1726128 C17.3439728,6.2749213 16.4001615,7.0320042 16.4001615,8.34155299 L16.4001615,8.35519412 C16.4001615,9.69202518 17.4303781,10.5377754 18.7929226,10.5377754 Z M17.5832489,8.32791186 L17.5832489,8.31427072 C17.5832489,7.58447009 18.0618011,7.18887723 19.1518367,7.12067156 L21.0660456,6.99790136 L21.0660456,7.66631689 C21.0660456,8.71668416 20.2086395,9.50786988 19.0321987,9.50786988 C18.2013788,9.50786988 17.5832489,9.07135362 17.5832489,8.32791186 Z" id="Shape"></path>
                <polygon id="Path" points="23.9488795 10.4081847 25.1053807 10.4081847 25.1053807 0.136411333 23.9488795 0.136411333"></polygon>
                <path d="M29.4172247,10.4627492 C29.6432077,10.4627492 29.8625442,10.4354669 30.0885271,10.3945435 L30.0885271,9.38509969 C29.8758373,9.40556139 29.7628458,9.41238195 29.5568025,9.41238195 C28.8123879,9.41238195 28.5199393,9.06453305 28.5199393,8.19832109 L28.5199393,4.03777545 L30.0885271,4.03777545 L30.0885271,3.05561385 L28.5199393,3.05561385 L28.5199393,1.15267576 L27.3235588,1.15267576 L27.3235588,3.05561385 L26.1936439,3.05561385 L26.1936439,4.03777545 L27.3235588,4.03777545 L27.3235588,8.49842602 C27.3235588,9.90346275 27.9416888,10.4627492 29.4172247,10.4627492 Z" id="Path"></path>
                <path d="M31.4293595,10.4081847 L32.5858607,10.4081847 L32.5858607,6.05666317 C32.5858607,4.76757608 33.3103356,3.97639035 34.4535436,3.97639035 C35.5967517,3.97639035 36.1284764,4.61070304 36.1284764,5.93389297 L36.1284764,10.4081847 L37.2849776,10.4081847 L37.2849776,5.64742917 C37.2849776,3.90136411 36.3876922,2.92602308 34.779225,2.92602308 C33.7224222,2.92602308 33.0511198,3.38300105 32.6922057,4.16054565 L32.5858607,4.16054565 L32.5858607,0.136411333 L31.4293595,0.136411333 L31.4293595,10.4081847 Z" id="Path"></path>
                <path d="M39.2638796,12.9863589 C40.5333722,12.9863589 41.1249159,12.5089192 41.7164597,10.8583421 L44.5146608,3.05561385 L43.2983406,3.05561385 L41.3376058,9.10545645 L41.2312609,9.10545645 L39.2638796,3.05561385 L38.0276197,3.05561385 L40.6795965,10.4150052 L40.5466654,10.8515215 C40.2874496,11.6972718 39.8886561,12.0041973 39.2306468,12.0041973 C39.0711294,12.0041973 38.8916723,11.9973767 38.7520946,11.9700944 L38.7520946,12.9454355 C38.911612,12.9727177 39.1110087,12.9863589 39.2638796,12.9863589 Z" id="Path"></path>
                <polygon id="Path" points="51.0978554 10.4081847 52.2277703 10.4081847 54.4344278 2.63955929 54.5141865 2.63955929 56.7208439 10.4081847 57.8507588 10.4081847 60.4628563 0.56610703 59.2133033 0.56610703 57.305741 8.56663169 57.2259823 8.56663169 55.0791439 0.56610703 53.8694703 0.56610703 51.7226319 8.56663169 51.6428732 8.56663169 49.7353109 0.56610703 48.4857579 0.56610703"></polygon>
                <path d="M62.9867761,10.5377754 C63.9505271,10.5377754 64.7015882,10.1080797 65.1535542,9.32371459 L65.2598991,9.32371459 L65.2598991,10.4081847 L66.4164003,10.4081847 L66.4164003,5.37460651 C66.4164003,3.84679958 65.4393562,2.92602308 63.6913113,2.92602308 C62.1626029,2.92602308 61.0725673,3.70356768 60.8864636,4.85624344 L60.8798171,4.89716684 L62.0363182,4.89716684 L62.0429648,4.87670514 C62.2290684,4.30377754 62.7940259,3.97639035 63.651432,3.97639035 C64.7215279,3.97639035 65.2598991,4.46747114 65.2598991,5.37460651 L65.2598991,6.04302204 L63.2061125,6.1726128 C61.5378264,6.2749213 60.5940151,7.0320042 60.5940151,8.34155299 L60.5940151,8.35519412 C60.5940151,9.69202518 61.6242316,10.5377754 62.9867761,10.5377754 Z M61.7771025,8.32791186 L61.7771025,8.31427072 C61.7771025,7.58447009 62.2556547,7.18887723 63.3456903,7.12067156 L65.2598991,6.99790136 L65.2598991,7.66631689 C65.2598991,8.71668416 64.4024931,9.50786988 63.2260522,9.50786988 C62.3952324,9.50786988 61.7771025,9.07135362 61.7771025,8.32791186 Z" id="Shape"></path>
                <path d="M68.0762675,10.4081847 L69.2327687,10.4081847 L69.2327687,5.85204617 C69.2327687,4.77439664 70.0170626,4.05823715 71.1203913,4.05823715 C71.3729605,4.05823715 71.5922969,4.08551941 71.831573,4.12644281 L71.831573,2.97376705 C71.7185815,2.95330535 71.4726589,2.92602308 71.2533224,2.92602308 C70.2829249,2.92602308 69.6116225,3.37618048 69.3391136,4.14690451 L69.2327687,4.14690451 L69.2327687,3.05561385 L68.0762675,3.05561385 L68.0762675,10.4081847 Z" id="Path"></path>
                <path d="M75.2527782,10.5377754 C76.249762,10.5377754 77.047349,10.0535152 77.4860219,9.23504722 L77.5923668,9.23504722 L77.5923668,10.4081847 L78.748868,10.4081847 L78.748868,0.136411333 L77.5923668,0.136411333 L77.5923668,4.21511018 L77.4860219,4.21511018 C77.0938749,3.43074502 76.2364689,2.92602308 75.2527782,2.92602308 C73.4316212,2.92602308 72.2485338,4.41972718 72.2485338,6.7250787 L72.2485338,6.73871983 C72.2485338,9.03043022 73.4382678,10.5377754 75.2527782,10.5377754 Z M75.5186406,9.48740818 C74.2092685,9.48740818 73.4316212,8.45068206 73.4316212,6.73871983 L73.4316212,6.7250787 C73.4316212,5.01311647 74.2092685,3.97639035 75.5186406,3.97639035 C76.821366,3.97639035 77.618953,5.02675761 77.618953,6.7250787 L77.618953,6.73871983 C77.618953,8.43704092 76.821366,9.48740818 75.5186406,9.48740818 Z" id="Shape"></path>
                <path d="M80.5150801,10.4081847 L81.6715813,10.4081847 L81.6715813,5.85204617 C81.6715813,4.77439664 82.4558752,4.05823715 83.5592039,4.05823715 C83.8117731,4.05823715 84.0311096,4.08551941 84.2703857,4.12644281 L84.2703857,2.97376705 C84.1573942,2.95330535 83.9114715,2.92602308 83.6921351,2.92602308 C82.7217375,2.92602308 82.0504351,3.37618048 81.7779262,4.14690451 L81.6715813,4.14690451 L81.6715813,3.05561385 L80.5150801,3.05561385 L80.5150801,10.4081847 Z" id="Path"></path>
                <path d="M87.990686,10.5377754 C90.0311795,10.5377754 91.2940256,9.09181532 91.2940256,6.73871983 L91.2940256,6.7250787 C91.2940256,4.36516264 90.0311795,2.92602308 87.990686,2.92602308 C85.9501926,2.92602308 84.6873464,4.36516264 84.6873464,6.7250787 L84.6873464,6.73871983 C84.6873464,9.09181532 85.9501926,10.5377754 87.990686,10.5377754 Z M87.990686,9.48740818 C86.6347881,9.48740818 85.8704339,8.47114376 85.8704339,6.73871983 L85.8704339,6.7250787 C85.8704339,4.98583421 86.6347881,3.97639035 87.990686,3.97639035 C89.3465839,3.97639035 90.1109382,4.98583421 90.1109382,6.7250787 L90.1109382,6.73871983 C90.1109382,8.47114376 89.3465839,9.48740818 87.990686,9.48740818 Z" id="Shape"></path>
                <path d="M96.1974133,10.5377754 C98.0119238,10.5377754 99.2016578,9.03043022 99.2016578,6.73871983 L99.2016578,6.7250787 C99.2016578,4.41972718 98.0185703,2.92602308 96.1974133,2.92602308 C95.2137227,2.92602308 94.3563166,3.43074502 93.9641697,4.21511018 L93.8578247,4.21511018 L93.8578247,0.136411333 L92.7013236,0.136411333 L92.7013236,10.4081847 L93.8578247,10.4081847 L93.8578247,9.23504722 L93.9641697,9.23504722 C94.4028425,10.0535152 95.2004295,10.5377754 96.1974133,10.5377754 Z M95.931551,9.48740818 C94.6288255,9.48740818 93.8312385,8.43704092 93.8312385,6.73871983 L93.8312385,6.7250787 C93.8312385,5.02675761 94.6288255,3.97639035 95.931551,3.97639035 C97.240923,3.97639035 98.0185703,5.01311647 98.0185703,6.7250787 L98.0185703,6.73871983 C98.0185703,8.45068206 97.240923,9.48740818 95.931551,9.48740818 Z" id="Shape"></path>
                <path d="M103.466976,10.5377754 C105.155202,10.5377754 106.178772,9.55561385 106.424694,8.55981112 L106.437988,8.50524659 L105.281486,8.50524659 L105.2549,8.56663169 C105.06215,9.00996852 104.46396,9.48058762 103.493562,9.48058762 C102.217423,9.48058762 101.399896,8.59391396 101.366663,7.0729276 L106.524393,7.0729276 L106.524393,6.60912907 C106.524393,4.41290661 105.341305,2.92602308 103.393864,2.92602308 C101.446422,2.92602308 100.183576,4.48111228 100.183576,6.75236097 L100.183576,6.75918153 C100.183576,9.06453305 101.419836,10.5377754 103.466976,10.5377754 Z M103.387217,3.98321091 C104.44402,3.98321091 105.228314,4.67208814 105.347952,6.12486884 L101.386603,6.12486884 C101.512888,4.72665268 102.323768,3.98321091 103.387217,3.98321091 Z" id="Shape"></path>
                <path d="M111.386129,10.4081847 L114.676175,10.4081847 C117.527549,10.4081847 119.202482,8.58709339 119.202482,5.49055614 L119.202482,5.47691501 C119.202482,2.38719832 117.520902,0.56610703 114.676175,0.56610703 L111.386129,0.56610703 L111.386129,10.4081847 Z M112.582509,9.30325289 L112.582509,1.67103882 L114.596417,1.67103882 C116.723315,1.67103882 117.979515,3.08971668 117.979515,5.49055614 L117.979515,5.50419727 C117.979515,7.89821616 116.736608,9.30325289 114.596417,9.30325289 L112.582509,9.30325289 Z" id="Shape"></path>
                <path d="M123.600731,10.5377754 C125.288957,10.5377754 126.312527,9.55561385 126.558449,8.55981112 L126.571742,8.50524659 L125.415241,8.50524659 L125.388655,8.56663169 C125.195905,9.00996852 124.597715,9.48058762 123.627317,9.48058762 C122.351178,9.48058762 121.533651,8.59391396 121.500418,7.0729276 L126.658148,7.0729276 L126.658148,6.60912907 C126.658148,4.41290661 125.47506,2.92602308 123.527619,2.92602308 C121.580177,2.92602308 120.317331,4.48111228 120.317331,6.75236097 L120.317331,6.75918153 C120.317331,9.06453305 121.553591,10.5377754 123.600731,10.5377754 Z M123.520972,3.98321091 C124.577775,3.98321091 125.362069,4.67208814 125.481707,6.12486884 L121.520358,6.12486884 C121.646643,4.72665268 122.457523,3.98321091 123.520972,3.98321091 Z" id="Shape"></path>
                <path d="M130.458207,10.5377754 C132.086614,10.5377754 133.32952,9.63064008 133.32952,8.32109129 L133.32952,8.30745016 C133.32952,7.2570829 132.678157,6.65687303 131.328906,6.32266527 L130.225577,6.0498426 C129.381464,5.83840504 129.02255,5.52465897 129.02255,5.02675761 L129.02255,5.01311647 C129.02255,4.36516264 129.647327,3.91500525 130.498086,3.91500525 C131.362139,3.91500525 131.92045,4.31741868 132.07332,4.89716684 L133.209882,4.89716684 C133.050365,3.69674711 132.006855,2.92602308 130.504733,2.92602308 C128.982671,2.92602308 127.839463,3.84679958 127.839463,5.06768101 L127.839463,5.07450157 C127.839463,6.1316894 128.4443,6.73189927 129.786904,7.05928646 L130.89688,7.33210913 C131.780872,7.55036726 132.146433,7.89821616 132.146433,8.39611752 L132.146433,8.40975866 C132.146433,9.07817419 131.461837,9.54879328 130.498086,9.54879328 C129.580861,9.54879328 129.009257,9.14637985 128.816507,8.53252886 L127.633419,8.53252886 C127.766351,9.74658972 128.863033,10.5377754 130.458207,10.5377754 Z" id="Path"></path>
                <path d="M135.281836,1.63693599 C135.720509,1.63693599 136.079423,1.26862539 136.079423,0.818467996 C136.079423,0.368310598 135.720509,-2.90323321e-14 135.281836,-2.90323321e-14 C134.843163,-2.90323321e-14 134.484249,0.368310598 134.484249,0.818467996 C134.484249,1.26862539 134.843163,1.63693599 135.281836,1.63693599 Z M134.696939,10.4081847 L135.85344,10.4081847 L135.85344,3.05561385 L134.696939,3.05561385 L134.696939,10.4081847 Z" id="Shape"></path>
                <path d="M140.530845,13 C142.484933,13 143.721193,11.9496327 143.721193,10.3058762 L143.721193,3.05561385 L142.564691,3.05561385 L142.564691,4.26967471 L142.484933,4.26967471 C142.04626,3.43756558 141.261966,2.92602308 140.251689,2.92602308 C138.37736,2.92602308 137.220858,4.41972718 137.220858,6.4795383 L137.220858,6.49317943 C137.220858,8.55299056 138.370713,10.0262329 140.225103,10.0262329 C141.208794,10.0262329 142.019674,9.56925498 142.47164,8.75760756 L142.577985,8.75760756 L142.577985,10.2444911 C142.577985,11.3289612 141.81363,11.9496327 140.530845,11.9496327 C139.500628,11.9496327 138.862558,11.5540399 138.736274,10.9947534 L138.729627,10.9879328 L137.533247,10.9879328 L137.519954,10.9947534 C137.699411,12.2019937 138.802739,13 140.530845,13 Z M140.477672,8.97586569 C139.14836,8.97586569 138.403946,7.95278069 138.403946,6.49317943 L138.403946,6.4795383 C138.403946,5.01993704 139.14836,3.97639035 140.477672,3.97639035 C141.800337,3.97639035 142.604571,5.01993704 142.604571,6.4795383 L142.604571,6.49317943 C142.604571,7.95278069 141.806984,8.97586569 140.477672,8.97586569 Z" id="Shape"></path>
                <path d="M145.420939,10.4081847 L146.57744,10.4081847 L146.57744,6.05666317 C146.57744,4.76757608 147.301915,3.97639035 148.445123,3.97639035 C149.588331,3.97639035 150.120056,4.61070304 150.120056,5.93389297 L150.120056,10.4081847 L151.276557,10.4081847 L151.276557,5.64742917 C151.276557,3.90136411 150.379272,2.92602308 148.770805,2.92602308 C147.714002,2.92602308 147.042699,3.38300105 146.683785,4.16054565 L146.57744,4.16054565 L146.57744,3.05561385 L145.420939,3.05561385 L145.420939,10.4081847 Z" id="Path"></path>
                <path d="M155.834324,10.5377754 C157.52255,10.5377754 158.54612,9.55561385 158.792042,8.55981112 L158.805336,8.50524659 L157.648834,8.50524659 L157.622248,8.56663169 C157.429498,9.00996852 156.831308,9.48058762 155.86091,9.48058762 C154.584771,9.48058762 153.767244,8.59391396 153.734011,7.0729276 L158.891741,7.0729276 L158.891741,6.60912907 C158.891741,4.41290661 157.708653,2.92602308 155.761212,2.92602308 C153.81377,2.92602308 152.550924,4.48111228 152.550924,6.75236097 L152.550924,6.75918153 C152.550924,9.06453305 153.787184,10.5377754 155.834324,10.5377754 Z M155.754565,3.98321091 C156.811368,3.98321091 157.595662,4.67208814 157.7153,6.12486884 L153.753951,6.12486884 C153.880236,4.72665268 154.691116,3.98321091 155.754565,3.98321091 Z" id="Shape"></path>
                <path d="M160.232573,10.4081847 L161.389074,10.4081847 L161.389074,5.85204617 C161.389074,4.77439664 162.173368,4.05823715 163.276697,4.05823715 C163.529266,4.05823715 163.748603,4.08551941 163.987879,4.12644281 L163.987879,2.97376705 C163.874887,2.95330535 163.628965,2.92602308 163.409628,2.92602308 C162.439231,2.92602308 161.767928,3.37618048 161.495419,4.14690451 L161.389074,4.14690451 L161.389074,3.05561385 L160.232573,3.05561385 L160.232573,10.4081847 Z" id="Path"></path>
            </g>
            <g id="ATHAI" fill="#008E73">
                <path d="M0,35 L3.53521597,35 L7.46052473,24.2792793 L22.3571934,24.2792793 L26.2825022,35 L29.7933373,35 L16.5545631,0 L13.2631551,0 L0,35 Z M14.8722879,4.05058905 L14.9454303,4.05058905 L21.308819,21.4171864 L8.50889913,21.4171864 L14.8722879,4.05058905 Z" id="Shape"></path>
                <polygon id="Path" points="48.1498631 35 51.4900327 35 51.4900327 3.00762301 63.1196742 3.00762301 63.1196742 0 36.5446024 0 36.5446024 3.00762301 48.1498631 3.00762301"></polygon>
                <polygon id="Path" points="77.5265104 35 80.8422992 35 80.8422992 18.5793486 101.419694 18.5793486 101.419694 35 104.759864 35 104.759864 0 101.419694 0 101.419694 15.5717256 80.8422992 15.5717256 80.8422992 0 77.5265104 0"></polygon>
                <path d="M118.825369,35 L122.360585,35 L126.285894,24.2792793 L141.182562,24.2792793 L145.107871,35 L148.618706,35 L135.379932,0 L132.088524,0 L118.825369,35 Z M133.697657,4.05058905 L133.770799,4.05058905 L140.134188,21.4171864 L127.334268,21.4171864 L133.697657,4.05058905 Z" id="Shape"></path>
                <polygon id="Path" points="162.684211 35 166 35 166 0 162.684211 0"></polygon>
            </g>
        </g>
    </g>
</svg>